<?xml version="1.0" encoding="utf-8"?>
<!-- Svg Vector Icons : http://www.onlinewebfonts.com/icon -->
<!DOCTYPE svg PUBLIC "-//W3C//DTD SVG 1.1//EN" "http://www.w3.org/Graphics/SVG/1.1/DTD/svg11.dtd">
<svg version="1.1" xmlns="http://www.w3.org/2000/svg" xmlns:xlink="http://www.w3.org/1999/xlink" x="0px" y="0px" viewBox="0 0 256 256" enable-background="new 0 0 256 256" xml:space="preserve">
<metadata> Svg Vector Icons : http://www.onlinewebfonts.com/icon </metadata>
<g><g><path fill="#000000" d="M205.9,149.9c-26.5-57.4-9.4-75.8-9.2-76c0.3-0.3,0.3-0.8,0.1-1.1c-0.2-0.4-0.7-0.5-1.1-0.3c-0.4,0.1-37.3,15.5-32.6,49.6c-10.1-9.1-57.4-55.8-28.5-110.7c0.2-0.3,0.1-0.7-0.1-1c-0.2-0.3-0.7-0.4-1-0.2c-0.6,0.2-15.4,6.6-27.1,22.5c-10.8,14.7-20.9,40.6-7.3,80.8c4.9,18.9-4.4,34.2-9.4,40.7c1.2-4.5,2.8-12.1,2.5-20.8c-0.4-12.8-5-30.4-24.7-41.8c-0.3-0.2-0.7-0.2-1,0c-0.3,0.2-0.4,0.6-0.3,0.9c0,0.3,7.4,33.9-5.5,49.4c-11.1,13.4-22.1,36.7-16.1,58.3c5,18.1,20.4,31.8,46,40.9c6.6,2,12.8,3.5,19.8,4.8c0.5,0.1,0.9-0.2,1-0.6c0.1-0.5-0.1-0.9-0.5-1.1c-13.1-5.7-26.7-17.5-16.6-41.6c9.6-20.7,7.9-31.5,5.9-36c5,2.8,14.8,10,12.3,22.8c-0.1,0.4,0.1,0.8,0.4,0.9c0.3,0.2,0.7,0.2,1-0.1c0.3-0.2,29.9-24.6,16.5-54.4c6.6,3.8,24.2,17.2,13.8,47.8c-3.4,13.2,6,22.7,6.3,23.1c0.3,0.3,0.8,0.4,1.2,0.1c0.4-0.2,0.5-0.7,0.3-1.1c-0.3-0.8-7.3-19.7,7.9-30.1c-0.8,4.8-2.1,16.8,3.3,23.4c4.9,5.9,9.6,15.5,8.2,25c-1,6.6-4.9,12.2-11.7,16.6c-0.4,0.3-0.5,0.7-0.3,1.2c0.2,0.4,0.7,0.6,1.1,0.5c16.7-5.5,38.6-16.5,48.1-37.4C215.6,189.4,214.7,170.9,205.9,149.9z"/></g></g>
</svg>